<?xml version="1.0" encoding="utf-8"?>
<!-- Generator: Adobe Illustrator 21.1.0, SVG Export Plug-In . SVG Version: 6.00 Build 0)  -->
<svg version="1.1" id="Layer_1" xmlns="http://www.w3.org/2000/svg" xmlns:xlink="http://www.w3.org/1999/xlink" x="0px" y="0px"
	 viewBox="0 0 600 600" style="enable-background:new 0 0 600 600;" xml:space="preserve">
<style type="text/css">
	.st0{fill:#FEE480;stroke:#FEE480;stroke-width:4.5;stroke-miterlimit:10;}
	.st1{fill:none;stroke:#121829;stroke-width:4.5;stroke-miterlimit:10;}
</style>
<g>
	<g>
		<line class="st0" x1="260.6" y1="242.1" x2="260.6" y2="430.8"/>
		<line class="st0" x1="260.6" y1="281.6" x2="275.6" y2="256.3"/>
		<path class="st0" d="M254.7,317.1"/>
		<line class="st0" x1="260.7" y1="336.9" x2="287" y2="292.1"/>
		<line class="st0" x1="254.7" y1="372.4" x2="285.1" y2="321"/>
		<line class="st0" x1="254.7" y1="317.1" x2="283.7" y2="268"/>
		<line class="st0" x1="260.7" y1="336.9" x2="287" y2="292.1"/>
		<line class="st0" x1="254.7" y1="372.4" x2="285.1" y2="321"/>
		<line class="st0" x1="261.1" y1="242.1" x2="261.1" y2="430.8"/>
		<line class="st0" x1="261.1" y1="281.6" x2="244.3" y2="253.2"/>
		<line class="st0" x1="267" y1="317.1" x2="236.7" y2="265.7"/>
		<line class="st0" x1="261.1" y1="336.9" x2="234.7" y2="292.1"/>
		<line class="st0" x1="267" y1="372.4" x2="236.7" y2="321"/>
		<line class="st0" x1="261.1" y1="281.6" x2="244.3" y2="253.2"/>
		<line class="st0" x1="267" y1="317.1" x2="236.7" y2="265.7"/>
		<line class="st0" x1="261.1" y1="336.9" x2="234.7" y2="292.1"/>
		<line class="st0" x1="267" y1="372.4" x2="236.7" y2="321"/>
	</g>
	<g>
		<line class="st0" x1="334.6" y1="242.1" x2="334.6" y2="430.8"/>
		<line class="st0" x1="334.6" y1="281.6" x2="351.4" y2="253.2"/>
		<line class="st0" x1="328.7" y1="317.1" x2="359" y2="265.7"/>
		<line class="st0" x1="334.6" y1="336.9" x2="361" y2="292.1"/>
		<line class="st0" x1="328.7" y1="372.4" x2="359" y2="321"/>
		<line class="st0" x1="334.6" y1="281.6" x2="351.4" y2="253.2"/>
		<line class="st0" x1="328.7" y1="317.1" x2="359" y2="265.7"/>
		<line class="st0" x1="334.6" y1="336.9" x2="361" y2="292.1"/>
		<line class="st0" x1="328.7" y1="372.4" x2="359" y2="321"/>
		<line class="st0" x1="335" y1="242.1" x2="335" y2="430.8"/>
		<path class="st0" d="M335,281.6"/>
		<path class="st0" d="M341,317.1"/>
		<line class="st0" x1="335" y1="336.9" x2="308.6" y2="292.1"/>
		<line class="st0" x1="340.9" y1="372.4" x2="310.6" y2="321"/>
		<line class="st0" x1="335" y1="281.6" x2="319.5" y2="255.3"/>
		<line class="st0" x1="341" y1="317.1" x2="312.1" y2="268.2"/>
		<line class="st0" x1="335" y1="336.9" x2="308.6" y2="292.1"/>
		<line class="st0" x1="340.9" y1="372.4" x2="310.6" y2="321"/>
	</g>
	<g>
		<line class="st1" x1="297.4" y1="216" x2="321.2" y2="175.8"/>
		<line class="st1" x1="289" y1="266.3" x2="332" y2="193.5"/>
		<line class="st1" x1="297.4" y1="294.3" x2="334.8" y2="231"/>
		<line class="st1" x1="289" y1="344.6" x2="332" y2="271.8"/>
		<line class="st1" x1="297.4" y1="216" x2="321.2" y2="175.8"/>
		<line class="st1" x1="289" y1="266.3" x2="332" y2="193.5"/>
		<line class="st1" x1="297.4" y1="294.3" x2="334.8" y2="231"/>
		<line class="st1" x1="289" y1="344.6" x2="332" y2="271.8"/>
		<line class="st1" x1="298" y1="160.2" x2="298" y2="427.3"/>
		<line class="st1" x1="306.4" y1="266.3" x2="263.4" y2="193.5"/>
		<line class="st1" x1="306.4" y1="344.6" x2="263.4" y2="271.8"/>
		<line class="st1" x1="298" y1="216" x2="274.3" y2="175.8"/>
		<line class="st1" x1="306.4" y1="266.3" x2="263.4" y2="193.5"/>
		<line class="st1" x1="298" y1="294.3" x2="260.7" y2="231"/>
		<line class="st1" x1="306.4" y1="344.6" x2="263.4" y2="271.8"/>
	</g>
</g>
</svg>
